# xmcd
#
# Track frame offsets: 
#        150
#        28586
#        46380
#        64047
#        78237
#        101630
#        125168
#        137753
#        151668
#        167250
#
# Disc length: 2487 seconds
#
# Revision: 0
# Processed by: cddbd v1.5.2PL0 Copyright (c) Steve Scherf et al.
# Submitted via: ExactAudioCopy v0.99pb5
#
DISCID=7709b50a
DTITLE=GBR - Parasta Buddhaa
DYEAR=2010
DGENRE=Hip-Hop
TTITLE0=365 HKI (Matinpoika, Okku, Juno, VilleGalle and Tono Slono)
TTITLE1=Mitä Helvettiä (Ras Henry, Matinpoika and Juno)
TTITLE2=Unelmaperhe (Juno, Matinpoika and Okku)
TTITLE3=Arkkuun Asti (Matinpoika, Juno and Okku)
TTITLE4=Salem Aleikum (Matinpoika, VilleGalle, Juno and Okku)
TTITLE5=Filtteri (Matinpoika, Juno, Heinis and Pyhimys)
TTITLE6=Parasta Buddhaa (Juno, Matinpoika, VilleGalle and Okku)
TTITLE7=Elä Unelmaas (Juno and Matinpoika)
TTITLE8=Kaikki Kaikessa (Matinpoika and Okku)
TTITLE9=Urheiluhullu (Juno, VilleGalle, Jare and Matinpoika)
EXTD=
EXTT0=
EXTT1=
EXTT2=
EXTT3=
EXTT4=
EXTT5=
EXTT6=
EXTT7=
EXTT8=
EXTT9=
PLAYORDER=
